<?xml version="1.0" encoding="UTF-8" standalone="no"?>
<!DOCTYPE svg PUBLIC "-//W3C//DTD SVG 1.0//EN" "http://www.w3.org/TR/2001/PR-SVG-20010719/DTD/svg10.dtd">
<svg width="39cm" height="43cm" viewBox="-161 239 762 858" xmlns="http://www.w3.org/2000/svg" xmlns:xlink="http://www.w3.org/1999/xlink">
  <g>
    <rect style="fill: #ffffff" x="40" y="540" width="560" height="440"/>
    <rect style="fill: none; fill-opacity:0; stroke-width: 2; stroke: #000000" x="40" y="540" width="560" height="440"/>
  </g>
  <g>
    <rect style="fill: #ffffff" x="340" y="240" width="260" height="260"/>
    <rect style="fill: none; fill-opacity:0; stroke-width: 2; stroke: #000000" x="340" y="240" width="260" height="260"/>
  </g>
  <g>
    <rect style="fill: #ffffff" x="-160" y="240" width="360" height="260"/>
    <rect style="fill: none; fill-opacity:0; stroke-width: 2; stroke: #000000" x="-160" y="240" width="360" height="260"/>
  </g>
  <text font-size="27.0933" style="fill: #000000;text-anchor:start;font-family:sans-serif;font-style:normal;font-weight:normal" x="0" y="280">
    <tspan x="0" y="280">Gun</tspan>
  </text>
  <g>
    <line style="fill: none; fill-opacity:0; stroke-width: 2; stroke: #000000" x1="176.8" y1="319" x2="356.939" y2="319"/>
    <polygon style="fill: #000000" points="364.439,319 354.439,324 356.939,319 354.439,314 "/>
    <polygon style="fill: none; fill-opacity:0; stroke-width: 2; stroke: #000000" points="364.439,319 354.439,324 356.939,319 354.439,314 "/>
  </g>
  <text font-size="12.8" style="fill: #000000;text-anchor:middle;font-family:sans-serif;font-style:normal;font-weight:normal" x="280" y="310">
    <tspan x="280" y="310">Laser bursts</tspan>
  </text>
  <text font-size="12.8" style="fill: #000000;text-anchor:start;font-family:sans-serif;font-style:normal;font-weight:normal" x="120" y="384">
    <tspan x="120" y="384">GPIO</tspan>
  </text>
  <g>
    <rect style="fill: #ffffff" x="0" y="400" width="110" height="49"/>
    <rect style="fill: none; fill-opacity:0; stroke-width: 2; stroke: #000000" x="0" y="400" width="110" height="49"/>
    <text font-size="12.7998" style="fill: #000000;text-anchor:middle;font-family:sans-serif;font-style:normal;font-weight:normal" x="55" y="428.4">
      <tspan x="55" y="428.4">TI CC430</tspan>
    </text>
  </g>
  <g>
    <rect style="fill: #ffffff" x="0" y="300" width="115.3" height="38"/>
    <rect style="fill: none; fill-opacity:0; stroke-width: 2; stroke: #000000" x="0" y="300" width="115.3" height="38"/>
    <text font-size="12.7998" style="fill: #000000;text-anchor:middle;font-family:sans-serif;font-style:normal;font-weight:normal" x="57.65" y="322.9">
      <tspan x="57.65" y="322.9">Accelerometer</tspan>
    </text>
  </g>
  <g>
    <rect style="fill: #ffffff" x="120" y="300" width="56.8" height="38"/>
    <rect style="fill: none; fill-opacity:0; stroke-width: 2; stroke: #000000" x="120" y="300" width="56.8" height="38"/>
    <text font-size="12.7998" style="fill: #000000;text-anchor:middle;font-family:sans-serif;font-style:normal;font-weight:normal" x="148.4" y="322.9">
      <tspan x="148.4" y="322.9">Laser</tspan>
    </text>
  </g>
  <g>
    <rect style="fill: #ffffff" x="-60" y="300" width="53.75" height="38"/>
    <rect style="fill: none; fill-opacity:0; stroke-width: 2; stroke: #000000" x="-60" y="300" width="53.75" height="38"/>
    <text font-size="12.7998" style="fill: #000000;text-anchor:middle;font-family:sans-serif;font-style:normal;font-weight:normal" x="-33.125" y="322.9">
      <tspan x="-33.125" y="322.9">LEDs</tspan>
    </text>
  </g>
  <text font-size="12.7998" style="fill: #000000;text-anchor:start;font-family:sans-serif;font-style:normal;font-weight:normal" x="62.6439" y="361.952">
    <tspan x="62.6439" y="361.952">GPIO</tspan>
  </text>
  <text font-size="12.7998" style="fill: #000000;text-anchor:start;font-family:sans-serif;font-style:normal;font-weight:normal" x="-20" y="384">
    <tspan x="-20" y="384">GPIO</tspan>
  </text>
  <g>
    <rect style="fill: #ffffff" x="-140" y="300" width="74.15" height="38"/>
    <rect style="fill: none; fill-opacity:0; stroke-width: 2; stroke: #000000" x="-140" y="300" width="74.15" height="38"/>
    <text font-size="12.7998" style="fill: #000000;text-anchor:middle;font-family:sans-serif;font-style:normal;font-weight:normal" x="-102.925" y="322.9">
      <tspan x="-102.925" y="322.9">Speaker</tspan>
    </text>
  </g>
  <text font-size="12.7998" style="fill: #000000;text-anchor:start;font-family:sans-serif;font-style:normal;font-weight:normal" x="-92" y="400">
    <tspan x="-92" y="400">GPIO</tspan>
  </text>
  <g>
    <rect style="fill: #ffffff" x="366.675" y="300" width="126.3" height="38"/>
    <rect style="fill: none; fill-opacity:0; stroke-width: 2; stroke: #000000" x="366.675" y="300" width="126.3" height="38"/>
    <text font-size="12.7998" style="fill: #000000;text-anchor:middle;font-family:sans-serif;font-style:normal;font-weight:normal" x="429.825" y="322.9">
      <tspan x="429.825" y="322.9">Phototransistors</tspan>
    </text>
  </g>
  <g>
    <rect style="fill: #ffffff" x="460" y="400" width="110" height="49"/>
    <rect style="fill: none; fill-opacity:0; stroke-width: 2; stroke: #000000" x="460" y="400" width="110" height="49"/>
    <text font-size="12.7998" style="fill: #000000;text-anchor:middle;font-family:sans-serif;font-style:normal;font-weight:normal" x="515" y="428.4">
      <tspan x="515" y="428.4">TI CC430</tspan>
    </text>
  </g>
  <g>
    <rect style="fill: #ffffff" x="520" y="300" width="53.75" height="38"/>
    <rect style="fill: none; fill-opacity:0; stroke-width: 2; stroke: #000000" x="520" y="300" width="53.75" height="38"/>
    <text font-size="12.7998" style="fill: #000000;text-anchor:middle;font-family:sans-serif;font-style:normal;font-weight:normal" x="546.875" y="322.9">
      <tspan x="546.875" y="322.9">LEDs</tspan>
    </text>
  </g>
  <text font-size="12.7998" style="fill: #000000;text-anchor:start;font-family:sans-serif;font-style:normal;font-weight:normal" x="560" y="360">
    <tspan x="560" y="360">GPIO</tspan>
  </text>
  <text font-size="12.7998" style="fill: #000000;text-anchor:start;font-family:sans-serif;font-style:normal;font-weight:normal" x="440" y="370">
    <tspan x="440" y="370">GPIO</tspan>
  </text>
  <text font-size="27.0933" style="fill: #000000;text-anchor:start;font-family:sans-serif;font-style:normal;font-weight:normal" x="440" y="280">
    <tspan x="440" y="280">Target</tspan>
  </text>
  <text font-size="27.0933" style="fill: #000000;text-anchor:middle;font-family:sans-serif;font-style:normal;font-weight:normal" x="300" y="580">
    <tspan x="300" y="580">Central Control</tspan>
    <tspan x="300" y="613.867">(Zed and daughter board)</tspan>
  </text>
  <g>
    <polyline style="fill: none; fill-opacity:0; stroke-width: 2; stroke: #000000" points="100,400 100,369 162.6,369 162.6,347.736 "/>
    <polygon style="fill: #000000" points="162.6,340.236 167.6,350.236 162.6,347.736 157.6,350.236 "/>
    <polygon style="fill: none; fill-opacity:0; stroke-width: 2; stroke: #000000" points="162.6,340.236 167.6,350.236 162.6,347.736 157.6,350.236 "/>
  </g>
  <g>
    <polyline style="fill: none; fill-opacity:0; stroke-width: 2; stroke: #000000" points="57.65,338 57.65,369 55,369 55,390.264 "/>
    <polygon style="fill: #000000" points="55,397.764 50,387.764 55,390.264 60,387.764 "/>
    <polygon style="fill: none; fill-opacity:0; stroke-width: 2; stroke: #000000" points="55,397.764 50,387.764 55,390.264 60,387.764 "/>
  </g>
  <g>
    <polyline style="fill: none; fill-opacity:0; stroke-width: 2; stroke: #000000" points="27.5,400 27.5,369 -33.125,369 -33.125,347.736 "/>
    <polygon style="fill: #000000" points="-33.125,340.236 -28.125,350.236 -33.125,347.736 -38.125,350.236 "/>
    <polygon style="fill: none; fill-opacity:0; stroke-width: 2; stroke: #000000" points="-33.125,340.236 -28.125,350.236 -33.125,347.736 -38.125,350.236 "/>
  </g>
  <g>
    <polyline style="fill: none; fill-opacity:0; stroke-width: 2; stroke: #000000" points="0,412.25 -102.925,412.25 -102.925,347.736 "/>
    <polygon style="fill: #000000" points="-102.925,340.236 -97.925,350.236 -102.925,347.736 -107.925,350.236 "/>
    <polygon style="fill: none; fill-opacity:0; stroke-width: 2; stroke: #000000" points="-102.925,340.236 -97.925,350.236 -102.925,347.736 -107.925,350.236 "/>
  </g>
  <g>
    <polyline style="fill: none; fill-opacity:0; stroke-width: 2; stroke: #000000" points="430,340 430,412.25 450.264,412.25 "/>
    <polygon style="fill: #000000" points="457.764,412.25 447.764,417.25 450.264,412.25 447.764,407.25 "/>
    <polygon style="fill: none; fill-opacity:0; stroke-width: 2; stroke: #000000" points="457.764,412.25 447.764,417.25 450.264,412.25 447.764,407.25 "/>
  </g>
  <g>
    <polyline style="fill: none; fill-opacity:0; stroke-width: 2; stroke: #000000" points="515,400 515,369 546.875,369 546.875,347.736 "/>
    <polygon style="fill: #000000" points="546.875,340.236 551.875,350.236 546.875,347.736 541.875,350.236 "/>
    <polygon style="fill: none; fill-opacity:0; stroke-width: 2; stroke: #000000" points="546.875,340.236 551.875,350.236 546.875,347.736 541.875,350.236 "/>
  </g>
  <g>
    <rect style="fill: #ffffff" x="240" y="640" width="110" height="49"/>
    <rect style="fill: none; fill-opacity:0; stroke-width: 2; stroke: #000000" x="240" y="640" width="110" height="49"/>
    <text font-size="12.7998" style="fill: #000000;text-anchor:middle;font-family:sans-serif;font-style:normal;font-weight:normal" x="295" y="668.4">
      <tspan x="295" y="668.4">TI CC430</tspan>
    </text>
  </g>
  <g>
    <polyline style="fill: none; fill-opacity:0; stroke-width: 2; stroke: #000000" points="230.264,664.5 55,664.5 55,458.736 "/>
    <polygon style="fill: #000000" points="237.764,664.5 227.764,669.5 230.264,664.5 227.764,659.5 "/>
    <polygon style="fill: none; fill-opacity:0; stroke-width: 2; stroke: #000000" points="237.764,664.5 227.764,669.5 230.264,664.5 227.764,659.5 "/>
    <polygon style="fill: #000000" points="55,451.236 60,461.236 55,458.736 50,461.236 "/>
    <polygon style="fill: none; fill-opacity:0; stroke-width: 2; stroke: #000000" points="55,451.236 60,461.236 55,458.736 50,461.236 "/>
  </g>
  <g>
    <polyline style="fill: none; fill-opacity:0; stroke-width: 2; stroke: #000000" points="359.736,664.5 515,664.5 515,458.736 "/>
    <polygon style="fill: #000000" points="352.236,664.5 362.236,659.5 359.736,664.5 362.236,669.5 "/>
    <polygon style="fill: none; fill-opacity:0; stroke-width: 2; stroke: #000000" points="352.236,664.5 362.236,659.5 359.736,664.5 362.236,669.5 "/>
    <polygon style="fill: #000000" points="515,451.236 520,461.236 515,458.736 510,461.236 "/>
    <polygon style="fill: none; fill-opacity:0; stroke-width: 2; stroke: #000000" points="515,451.236 520,461.236 515,458.736 510,461.236 "/>
  </g>
  <text font-size="12.7998" style="fill: #000000;text-anchor:start;font-family:sans-serif;font-style:normal;font-weight:normal" x="60" y="640">
    <tspan x="60" y="640">RF</tspan>
  </text>
  <text font-size="12.7998" style="fill: #000000;text-anchor:start;font-family:sans-serif;font-style:normal;font-weight:normal" x="520" y="640">
    <tspan x="520" y="640">RF</tspan>
  </text>
  <g>
    <rect style="fill: #ffffff" x="100" y="760" width="140" height="140"/>
    <rect style="fill: none; fill-opacity:0; stroke-width: 2; stroke: #000000" x="100" y="760" width="140" height="140"/>
    <text font-size="12.7998" style="fill: #000000;text-anchor:middle;font-family:sans-serif;font-style:normal;font-weight:normal" x="170" y="825.9">
      <tspan x="170" y="825.9">ARM</tspan>
      <tspan x="170" y="841.9">running Linux</tspan>
    </text>
  </g>
  <g>
    <polyline style="fill: none; fill-opacity:0; stroke-width: 2; stroke: #000000" points="295,698.736 295,724.5 170,724.5 170,750.264 "/>
    <polygon style="fill: #000000" points="295,691.236 300,701.236 295,698.736 290,701.236 "/>
    <polygon style="fill: none; fill-opacity:0; stroke-width: 2; stroke: #000000" points="295,691.236 300,701.236 295,698.736 290,701.236 "/>
    <polygon style="fill: #000000" points="170,757.764 165,747.764 170,750.264 175,747.764 "/>
    <polygon style="fill: none; fill-opacity:0; stroke-width: 2; stroke: #000000" points="170,757.764 165,747.764 170,750.264 175,747.764 "/>
  </g>
  <text font-size="12.7998" style="fill: #000000;text-anchor:start;font-family:sans-serif;font-style:normal;font-weight:normal" x="120" y="700">
    <tspan x="120" y="700">Custom Drivers</tspan>
  </text>
  <g>
    <rect style="fill: #ffffff" x="400" y="760" width="55.7" height="38"/>
    <rect style="fill: none; fill-opacity:0; stroke-width: 2; stroke: #000000" x="400" y="760" width="55.7" height="38"/>
    <text font-size="12.7998" style="fill: #000000;text-anchor:middle;font-family:sans-serif;font-style:normal;font-weight:normal" x="427.85" y="782.9">
      <tspan x="427.85" y="782.9">FPGA</tspan>
    </text>
  </g>
  <g>
    <polyline style="fill: none; fill-opacity:0; stroke-width: 2; stroke: #000000" points="390.264,779 320,779 320,783 249.736,783 "/>
    <polygon style="fill: #000000" points="397.764,779 387.764,784 390.264,779 387.764,774 "/>
    <polygon style="fill: none; fill-opacity:0; stroke-width: 2; stroke: #000000" points="397.764,779 387.764,784 390.264,779 387.764,774 "/>
    <polygon style="fill: #000000" points="242.236,783 252.236,778 249.736,783 252.236,788 "/>
    <polygon style="fill: none; fill-opacity:0; stroke-width: 2; stroke: #000000" points="242.236,783 252.236,778 249.736,783 252.236,788 "/>
  </g>
  <g>
    <rect style="fill: #ffffff" x="260" y="860" width="120.6" height="38"/>
    <rect style="fill: none; fill-opacity:0; stroke-width: 2; stroke: #000000" x="260" y="860" width="120.6" height="38"/>
    <text font-size="12.7998" style="fill: #000000;text-anchor:middle;font-family:sans-serif;font-style:normal;font-weight:normal" x="320.3" y="882.9">
      <tspan x="320.3" y="882.9">Board Switches</tspan>
    </text>
  </g>
  <g>
    <rect style="fill: #ffffff" x="400" y="860" width="110.95" height="38"/>
    <rect style="fill: none; fill-opacity:0; stroke-width: 2; stroke: #000000" x="400" y="860" width="110.95" height="38"/>
    <text font-size="12.7998" style="fill: #000000;text-anchor:middle;font-family:sans-serif;font-style:normal;font-weight:normal" x="455.475" y="882.9">
      <tspan x="455.475" y="882.9">Board Display</tspan>
    </text>
  </g>
  <text font-size="12.7998" style="fill: #000000;text-anchor:start;font-family:sans-serif;font-style:normal;font-weight:normal" x="280" y="760">
    <tspan x="280" y="760">Custom Drivers</tspan>
  </text>
  <g>
    <polyline style="fill: none; fill-opacity:0; stroke-width: 2; stroke: #000000" points="441.775,798 441.775,829 455.475,829 455.475,850.264 "/>
    <polygon style="fill: #000000" points="455.475,857.764 450.475,847.764 455.475,850.264 460.475,847.764 "/>
    <polygon style="fill: none; fill-opacity:0; stroke-width: 2; stroke: #000000" points="455.475,857.764 450.475,847.764 455.475,850.264 460.475,847.764 "/>
  </g>
  <g>
    <polyline style="fill: none; fill-opacity:0; stroke-width: 2; stroke: #000000" points="350.45,860 350.45,829 413.925,829 413.925,807.736 "/>
    <polygon style="fill: #000000" points="413.925,800.236 418.925,810.236 413.925,807.736 408.925,810.236 "/>
    <polygon style="fill: none; fill-opacity:0; stroke-width: 2; stroke: #000000" points="413.925,800.236 418.925,810.236 413.925,807.736 408.925,810.236 "/>
  </g>
  <g>
    <rect style="fill: #ffffff" x="120" y="1040" width="368.631" height="55.8479"/>
    <rect style="fill: none; fill-opacity:0; stroke-width: 1.9812; stroke: #000000" x="120" y="1040" width="368.631" height="55.8479"/>
    <text font-size="27.0929" style="fill: #000000;text-anchor:middle;font-family:sans-serif;font-style:normal;font-weight:normal" x="304.316" y="1076.14">
      <tspan x="304.316" y="1076.14">Graphical User Interaface</tspan>
    </text>
  </g>
  <g>
    <polyline style="fill: none; fill-opacity:0; stroke-width: 2; stroke: #000000" points="304.316,1030.26 304.316,970 170,970 170,909.736 "/>
    <polygon style="fill: #000000" points="304.316,1037.76 299.316,1027.76 304.316,1030.26 309.316,1027.76 "/>
    <polygon style="fill: none; fill-opacity:0; stroke-width: 2; stroke: #000000" points="304.316,1037.76 299.316,1027.76 304.316,1030.26 309.316,1027.76 "/>
    <polygon style="fill: #000000" points="170,902.236 175,912.236 170,909.736 165,912.236 "/>
    <polygon style="fill: none; fill-opacity:0; stroke-width: 2; stroke: #000000" points="170,902.236 175,912.236 170,909.736 165,912.236 "/>
  </g>
  <text font-size="12.7998" style="fill: #000000;text-anchor:start;font-family:sans-serif;font-style:normal;font-weight:normal" x="200" y="960">
    <tspan x="200" y="960">JSON over TCP</tspan>
  </text>
</svg>
